<?xml version="1.0" encoding="utf-8"?>
<!-- Generator: Adobe Illustrator 27.7.0, SVG Export Plug-In . SVG Version: 6.00 Build 0)  -->
<svg version="1.1" id="Layer_1" xmlns="http://www.w3.org/2000/svg" xmlns:xlink="http://www.w3.org/1999/xlink" x="0px" y="0px"
	 viewBox="0 0 841.9 595.3" style="enable-background:new 0 0 841.9 595.3;" xml:space="preserve">
<style type="text/css">
	.st0{fill:#BD292D;}
	.st1{fill:none;}
	.st2{fill:#996E49;}
	.st3{fill:#FFFFFF;}
</style>
<g>
	<circle class="st0" cx="394.8" cy="250.7" r="10.4"/>
	<circle class="st0" cx="394.8" cy="292.2" r="10.4"/>
	<circle class="st0" cx="394.8" cy="333.8" r="10.4"/>
	<path class="st1" d="M311,405c0-3.8,0.1-7.6,0-11.4c-0.2-7.2-4.1-11.8-10.5-11.9c-4.6,0-9.3,2.8-13.7,4.7c-0.6,0.3-0.5,4.4-0.1,4.6
		c3.8,1.3,7.7,2,12,3c4.4,22.1,4.4,22.1,25.1,22.6c0,7.3-0.8,14,0.2,20.3c1.3,7.4,10.3,8.2,15.8,8.9c3.4,0.5,9-1.2,11.7-3.8
		c-3.4-2.2-13-11.1-16.9-13.6C337.3,407.8,334.4,404.7,311,405z"/>
	<path class="st1" d="M439.9,435.9c-2,0.8-5.1,2-7.9,3.6c-0.3,0.2,0.8,5.2,1.8,5.6c4.4,1.4,9.8,3.7,13.4,2c2.6-1.2,3.5-8.2,4.2-12.8
		c0.6-3.6-0.3-7.5-0.6-11.2c20.7-1.2,20.7-1.2,22.4-22.4c2.3,0.3,4.7,1,6.8,0.6c1.7-0.4,7.3,0.2,8.6-1c6-5.8-0.3-9.5-1.3-9.8
		c-4.5-1.2-14.4-1.1-18,0.7c-3.3,1.7-5.2,7.8-6.8,12.3c-0.8,2.4,0.5,5.6,0.8,7.4c-6.8,1.4-15,0.5-18.6,4.6
		C441,419.9,441.4,429,439.9,435.9z"/>
	<g>
		<path class="st1" d="M314.2,411.3c1.2,2.1,2.8,3.3,5.2,4C317.1,414.6,315.5,413.3,314.2,411.3z"/>
		<path class="st1" d="M453.5,446.1c2.6-1.2,8-7.1,8.7-11.7c0.6-3.6-0.3-7.5-0.6-11.2c20.7-1.2,20.7-1.2,22.4-22.4
			c2.3,0.3,4.7,1,6.8,0.6c1.7-0.4,7.3,0.2,8.6-1c6-5.8-0.3-9.5-1.3-9.8c-4.5-1.2-16,5.8-19.5,7.6c-3.3,1.7-3.7,0.8-5.3,5.4
			c-0.8,2.4,0.5,5.6,0.8,7.4c-6.8,1.4-15,0.5-18.6,4.6c-3.9,4.4-3.5,13.5-4.9,20.4c-2,0.8-5.1,2-7.9,3.6c-0.3,0.2-4.7,8.3-3.6,8.6
			C443.6,449.6,449.9,447.8,453.5,446.1z"/>
		<path class="st1" d="M308.6,393.2c-3.9-0.8-7.6-1.5-11.2-2.3c0,0.1,0.1,0.2,0.1,0.2c3.5,1.2,7.2,1.9,11.2,2.9
			C308.7,393.7,308.6,393.5,308.6,393.2z"/>
		<path class="st1" d="M339.3,438.7c-1.3-6.7-0.3-13.8-0.3-21.5c-1.6,0-3-0.1-4.4-0.1c0,7.2-0.8,13.7,0.2,20
			c0.8,4.6,4.5,6.6,8.5,7.7C341.4,443.6,339.9,441.7,339.3,438.7z"/>
		<path class="st1" d="M354.9,445c-1.6,0.5-3.2,0.8-4.8,0.9c0.2,0,0.3,0,0.5,0.1c3.4,0.5,9-1.2,11.7-3.8c-0.4-0.3-0.9-0.7-1.5-1.1
			C359,442.8,357.1,444.4,354.9,445z"/>
		<path class="st2" d="M508.9,406.7c-1.6-1.8-7.2-6-7.2-6c-15.2-8.1-25-20.4-29.9-36.5c-5.4-17.8-11.2-35.6-15.2-53.8
			c-4.1-18.4,2.7-29.7,19.7-36.4c12.9-5.1,26-9.7,38.8-14.9c19.8-7.9,25.8-17.5,25.5-39.6c-0.5-29.3-27.3-47.4-55-37.4
			c-7.1,4.3-2,1.3-7.1,4.3c0.6-0.1-23,4.5-35.4,6.9c14.1-18.9,22.6-43.2,22.3-63.6c-0.6-39.8-35-71.5-76.8-70.8
			c-41.8,0.7-75.2,33.4-74.6,73.2c0.3,17.7,7.3,38,18.7,55.1c0.1,6-5.3,7.9-5.3,7.9c-6.6-1.1-7.3-2.1-11-3
			c-12.3-2.9-28.5-5.2-40-7.7c-13.8-2-15-2.7-24-0.9c-12.9,2.6-18.6,17.5-21.1,27.8c-2.9,42.9,26.8,47.5,26.8,47.5
			c16.4,7.1,30,12.8,43.5,19c12.7,5.9,19.1,15.6,16,29.5c-4.1,18.4-9.9,36.5-16.8,54c-3.6,9.1-9.5,16.1-16.5,22.2
			c-1,0.4-11.9,9.2-16.4,12.3c-9,6.1-15.2,16.5-18.7,24.4c-9,20.3-4,38.6,6.8,55.1c17,26,52.9,13.2,71.2-4.2
			c11.2-10.7,15.4-23.6,27.3-33.4c17-14,34.7-13.7,52.8-3.7c6.8,3.7,23.6,15.1,19.1,13.7c12.8,8.5,19.4,28.4,33,35.2
			c22,11,31.3,6.9,53-4c12.3-6.2,21.1-20.7,19.7-40.3C531.2,428,525,424,508.9,406.7z"/>
	</g>
	<g>
		<g>
			<path class="st3" d="M353.4,156.9c5.2,3.7,11.5,6.2,17.3,8.5c6.4,2.6,13.1,5.1,20.1,5.1c7.4,0,15.3,0.3,22.3-2.2
				c7.9-2.7,13.4-8.5,18.3-15c3.3-4.4-4.1-8.7-7.4-4.3c-4.1,5.4-9,10.1-15.7,11.7c-6.1,1.5-13.5,1.7-19.8,1.2
				c-5.5-0.4-11.2-2.9-16.3-5c-5-2.1-10.3-4.3-14.7-7.4C353.2,146.3,348.9,153.7,353.4,156.9L353.4,156.9z"/>
		</g>
	</g>
	<circle class="st3" cx="362.8" cy="115.5" r="10.4"/>
	<circle class="st3" cx="414.9" cy="118.1" r="10.4"/>
	<circle class="st3" cx="384.5" cy="371.1" r="10.4"/>
	<circle class="st3" cx="384.5" cy="310.9" r="10.4"/>
	<circle class="st3" cx="384.4" cy="262.1" r="10.4"/>
	<g>
		<circle class="st0" cx="391.4" cy="202.8" r="8.4"/>
		<path class="st0" d="M419.3,213.4h-8.5c-5.8,0-10.6-4.8-10.6-10.6v0c0-5.8,4.8-10.6,10.6-10.6h8.5c5.8,0,10.6,4.8,10.6,10.6v0
			C429.9,208.7,425.1,213.4,419.3,213.4z"/>
		<path class="st0" d="M372.5,214.3H364c-5.8,0-10.6-4.8-10.6-10.6v0c0-5.8,4.8-10.6,10.6-10.6h8.5c5.8,0,10.6,4.8,10.6,10.6v0
			C383.1,209.5,378.3,214.3,372.5,214.3z"/>
	</g>
	<path class="st3" d="M447.6,445.4c25.3,2.2,25.3,2.2,30.9-22.7c4.4,1,8.7,2.9,13.1,2.9c5.6,0.1,13.9,0.4,15.9-2.5
		c2.8-4,1.1-11,0.4-16.7c-0.2-1.4-5.9-3.6-6.2-3.3c-2.6,3.1-1.2,13.8-2.6,16c-8.4,0.4-20.1-5.9-26.1-2.1c-5.5,3.5-4.2,14.9-8.8,21.1
		c-3,0.6-8.6,0.7-11.6,0.4c-6.5-0.6-9.4-2.2-12,1.5c-2.8,3.9-4.8,9.9-4.3,15.5c0.1,1.2,4,3.6,5.3,3.2c2.1-0.6,4.4-2.8,5.2-4.9
		C447.9,451.3,447.5,448.2,447.6,445.4z"/>
	<path class="st3" d="M322.7,454.4c-11.7-30.2-11.7-30.2-34.1-24.9c-1.5-5.5-2.4-11.5-4.7-16.5c-2.9-6.4-7.1-16.3-10.4-17.2
		c-4.6-1.3-9.2,4-13.2,7.5c-1,0.8,0.3,8.6,0.7,8.7c3.8,1.5,11.4-5.2,13.9-4.6c4.8,9.6,6,26,12.2,31.1c5.7,4.7,13.8-2.2,21.1,0.1
		c2.1,3.1,5.1,9.5,6.4,13.2c3,7.8,3.3,11.9,7.6,13.2c4.6,1.4,10.2,0.8,14.4-2.4c0.9-0.7,0.7-6.3-0.3-7.7c-1.6-2.2-4.5-3.7-6.5-3.7
		C327.1,451.3,325,453.3,322.7,454.4z"/>
	<path class="st3" d="M287.3,200c-20.7,13.6-20.7,13.6-10.5,35c-4,1.9-8.4,3.2-11.7,5.7c-4.3,3.3-10.9,8.1-10.7,11.4
		c0.2,4.6,5.6,8.7,9.5,12.3c0.9,0.9,6.7-0.9,6.7-1.3c0.1-3.8-7.1-10.7-7.4-13.2c6.3-5.3,18.9-7.8,21.2-14.1
		c2.2-5.9-5.5-13.3-5.6-20.5c1.9-2.2,6.2-5.6,8.6-7.2c5.4-3.4,8.5-4,8.3-8.3c-0.1-4.6-2.1-10-5.8-13.8c-0.8-0.8-5.1-0.2-6,0.9
		c-1.3,1.7-1.7,4.7-1.1,6.6C283.7,196,285.8,197.9,287.3,200z"/>
	<path class="st3" d="M483.6,197.3c-4,25.6-4,25.6,19.2,32.5c-1.3,4.4-3.4,8.7-3.8,13.1c-0.5,5.6-1.4,14.1,1.2,16.3
		c3.6,3,10.4,1.7,15.8,1.2c1.3-0.1,3.9-5.8,3.6-6.1c-2.8-2.8-13-1.9-15-3.5c0.3-8.6,7.2-20.1,4-26.4c-2.9-5.8-13.8-5-19.3-10
		c-0.3-3.1,0-8.7,0.5-11.8c1.1-6.6,2.8-9.4-0.5-12.3c-3.5-3.1-9-5.3-14.4-5.1c-1.2,0-3.7,3.9-3.5,5.3c0.4,2.2,2.3,4.6,4.2,5.5
		C478,197.2,480.9,196.9,483.6,197.3z"/>
</g>
</svg>
